<svg viewBox="92.966 111.953 452.118 236.373" xmlns="http://www.w3.org/2000/svg"><g fill="#3b3c98"><path d="M447.17354 247.26965c-3.27878 0-6.12544 2.66065-7.67127 6.56951-.76624 1.93801-1.23846 4.17165-1.23846 6.56952 0 7.2396 3.99602 13.13903 8.90973 13.13903s8.90973-5.89942 8.90973-13.13903c0-2.39787-.46776-4.6315-1.23846-6.56952-1.54583-3.90886-4.38804-6.56951-7.67127-6.56951zM509.54162 247.26965c-3.27878 0-6.12543 2.66065-7.67127 6.56951-.76624 1.93801-1.23845 4.17165-1.23845 6.56952 0 7.2396 3.99601 13.13903 8.90972 13.13903 4.91372 0 8.90973-5.89942 8.90973-13.13903 0-2.39787-.46776-4.6315-1.23845-6.56952-1.54584-3.90886-4.38804-6.56951-7.67128-6.56951z"/><path d="M299 159v-1l-6-1.715-7-4.285h-11v1h6v1h-11v1h12v1h-10v1h5v1h-2v1h-4v1h5v1h-1v1h-3v1h4c0-.352.072-.686.184-1 .414-1.162 1.512-2 2.816-2 1.305 0 2.402.838 2.816 2 .111.314.184.648.184 1h8c0-.352.072-.686.184-1 .414-1.162 1.512-2 2.816-2 1.305 0 2.402.838 2.816 2 .111.314.184.648.184 1h3v-1h1v-3h-1z" style="mix-blend-mode:multiply" transform="matrix(4.45486 0 0 6.56952 -795.73326 -810.4223)"/></g><path d="M129.181 214.76h16.848q8.527 0 11.65 4.576 3.123 4.575.919 13.415l-1.789 7.176q-2.204 8.839-7.609 13.415-5.404 4.576-13.932 4.576h-5.408l-7.39 29.639h-11.439Zm8.68 32.759q2.808 0 4.601-1.56 1.793-1.56 2.726-5.304l2.152-8.632q.934-3.744-.081-5.304-1.015-1.56-3.823-1.56h-5.408l-5.575 22.36Zm31.865-32.759h16.951q8.84 0 11.872 4.108 3.031 4.107.905 12.635l-1.115 4.472q-2.826 11.336-11.066 14.351l-.052.208q3.849 1.248 4.606 5.096.756 3.848-.852 10.296l-3.189 12.791q-.778 3.12-1.049 5.044-.272 1.924.093 3.796h-11.647q-.184-1.768-.003-3.328.181-1.56 1.193-5.616l3.319-13.311q1.244-4.992.125-6.968t-5.071-1.976h-3.952l-7.779 31.199h-11.439Zm7.821 31.199q3.431 0 5.588-1.768t3.194-5.928l1.4-5.616q.986-3.952.022-5.72-.963-1.768-3.979-1.768h-5.199l-5.186 20.8Zm34.494-31.199h31.198l-2.592 10.399h-19.76l-4.797 19.24h15.704l-2.593 10.399h-15.704l-5.574 22.359h19.759l-2.593 10.4H193.89Zm38.153 0h16.327l-5.711 52.102h.208l20.271-52.102h16.327l-18.15 72.797H268.65l13.743-55.118h-.208l-22.063 55.118h-9.567l5.423-55.118h-.208l-13.743 55.118h-9.984Zm60.305.125h11.439l-18.15 72.797h-11.44Zm20.374 0h31.199l-2.593 10.399H339.72l-4.797 19.24h15.703l-2.593 10.399H332.33l-5.575 22.359h19.759l-2.592 10.4h-31.199Zm37.64.274h16.952q8.839 0 11.871 4.108 3.032 4.107.906 12.635l-1.115 4.472q-2.827 11.336-11.066 14.351l-.052.208q3.848 1.248 4.605 5.096.757 3.848-.851 10.296l-3.189 12.791q-.778 3.12-1.05 5.044-.272 1.924.094 3.796H373.97q-.183-1.768-.002-3.328.181-1.56 1.192-5.616l3.319-13.311q1.245-4.992.125-6.968-1.119-1.976-5.071-1.976h-3.952l-7.778 31.199h-11.44Zm7.821 31.199q3.432 0 5.589-1.768 2.156-1.768 3.194-5.928l1.4-5.616q.985-3.952.022-5.72-.963-1.768-3.979-1.768h-5.2l-5.186 20.8ZM427.867 215.159h17.472q8.527 0 11.65 4.576 3.123 4.575.919 13.415l-9.179 36.815q-2.204 8.839-7.608 13.415-5.405 4.576-13.933 4.576h-17.471Zm1.706 62.397q2.808 0 4.731-1.664 1.923-1.663 2.856-5.407l9.438-37.855q.934-3.744-.159-5.408-1.093-1.664-3.901-1.664h-5.824l-12.965 51.998Zm41.514-62.397h16.951q8.84 0 11.871 4.108 3.032 4.107.906 12.635l-1.115 4.472q-2.827 11.336-11.066 14.351l-.052.208q3.849 1.248 4.605 5.096.757 3.848-.851 10.296l-3.189 12.791q-.778 3.12-1.05 5.044-.271 1.924.094 3.796h-11.648q-.183-1.768-.002-3.328.181-1.56 1.192-5.616l3.319-13.311q1.245-4.992.126-6.968-1.12-1.976-5.072-1.976h-3.951l-7.779 31.199h-11.44Zm7.82 31.199q3.432 0 5.589-1.768 2.157-1.768 3.194-5.928l1.4-5.616q.985-3.952.022-5.72-.963-1.768-3.979-1.768h-5.2l-5.186 20.8Zm35.092-31.199h11.44l-18.151 72.797h-11.439Zm17.949 0h11.543l-6.591 56.47h.208l21.567-56.47h10.503l-29.173 72.797h-15.184Zm43.741 0h31.199l-2.593 10.399h-19.759l-4.797 19.24h15.704l-2.593 10.399h-15.704l-5.574 22.359h19.759l-2.593 10.4h-31.199Z" transform="matrix(.61376 -.0119 .11254 1.25823 5.68809 -78.94647)" style="fill:#333;line-height:39.8063px;text-transform:uppercase"/><text style="fill:#333;font-family:Arial,sans-serif;font-size:22.1px;white-space:pre"><tspan x="170.251" y="152.236"> </tspan></text></svg>